<svg xmlns="http://www.w3.org/2000/svg" xmlns:xlink="http://www.w3.org/1999/xlink" width="375" viewBox="0 0 375 375" height="375" version="1.0"><defs><g id="b"><path d="M 21.65625 -30.234375 C 22.289062 -30.234375 22.765625 -30.210938 23.078125 -30.171875 C 23.390625 -30.128906 23.742188 -30 24.140625 -29.78125 C 24.546875 -29.5625 24.832031 -29.191406 25 -28.671875 C 25.164062 -28.148438 25.25 -27.445312 25.25 -26.5625 C 25.25 -25.6875 25.164062 -24.984375 25 -24.453125 C 24.832031 -23.929688 24.539062 -23.566406 24.125 -23.359375 C 23.71875 -23.160156 23.351562 -23.039062 23.03125 -23 C 22.71875 -22.957031 22.234375 -22.9375 21.578125 -22.9375 L 8.953125 -22.9375 L 8.953125 -18.765625 L 17.078125 -18.765625 C 17.734375 -18.765625 18.21875 -18.742188 18.53125 -18.703125 C 18.851562 -18.660156 19.222656 -18.53125 19.640625 -18.3125 C 20.347656 -17.90625 20.703125 -16.820312 20.703125 -15.0625 C 20.703125 -13.132812 20.179688 -11.988281 19.140625 -11.625 C 18.703125 -11.488281 18 -11.421875 17.03125 -11.421875 L 8.953125 -11.421875 L 8.953125 -3.625 C 8.953125 -2.96875 8.929688 -2.488281 8.890625 -2.1875 C 8.847656 -1.882812 8.71875 -1.523438 8.5 -1.109375 C 8.113281 -0.367188 7.039062 0 5.28125 0 C 3.351562 0 2.222656 -0.519531 1.890625 -1.5625 C 1.734375 -2.007812 1.65625 -2.710938 1.65625 -3.671875 L 1.65625 -26.609375 C 1.65625 -28.003906 1.914062 -28.957031 2.4375 -29.46875 C 2.957031 -29.976562 3.945312 -30.234375 5.40625 -30.234375 Z M 21.65625 -30.234375"/></g><g id="c"><path d="M 16.421875 -21.484375 C 16.941406 -21.328125 17.375 -21.046875 17.71875 -20.640625 C 18.0625 -20.242188 18.234375 -19.601562 18.234375 -18.71875 C 18.234375 -17.84375 17.972656 -16.878906 17.453125 -15.828125 C 16.929688 -14.785156 16.175781 -14.265625 15.1875 -14.265625 C 14.6875 -14.265625 14.207031 -14.375 13.75 -14.59375 C 13.300781 -14.820312 12.703125 -14.9375 11.953125 -14.9375 C 11.210938 -14.9375 10.519531 -14.671875 9.875 -14.140625 C 9.226562 -13.617188 8.90625 -12.988281 8.90625 -12.25 L 8.90625 -3.59375 C 8.90625 -2.957031 8.882812 -2.476562 8.84375 -2.15625 C 8.800781 -1.84375 8.671875 -1.484375 8.453125 -1.078125 C 8.046875 -0.359375 6.972656 0 5.234375 0 C 3.921875 0 2.972656 -0.234375 2.390625 -0.703125 C 1.953125 -1.085938 1.707031 -1.675781 1.65625 -2.46875 C 1.65625 -2.75 1.65625 -3.148438 1.65625 -3.671875 L 1.65625 -18.15625 C 1.65625 -18.78125 1.675781 -19.25 1.71875 -19.5625 C 1.757812 -19.882812 1.875 -20.238281 2.0625 -20.625 C 2.445312 -21.363281 3.519531 -21.734375 5.28125 -21.734375 C 6.925781 -21.734375 7.957031 -21.421875 8.375 -20.796875 C 8.675781 -20.347656 8.828125 -19.890625 8.828125 -19.421875 C 8.960938 -19.617188 9.160156 -19.851562 9.421875 -20.125 C 9.679688 -20.40625 10.238281 -20.773438 11.09375 -21.234375 C 11.945312 -21.703125 12.695312 -21.9375 13.34375 -21.9375 C 13.988281 -21.9375 14.53125 -21.898438 14.96875 -21.828125 C 15.414062 -21.765625 15.898438 -21.648438 16.421875 -21.484375 Z M 16.421875 -21.484375"/></g><g id="d"><path d="M 1.03125 -10.84375 C 1.03125 -14.144531 2.1875 -16.867188 4.5 -19.015625 C 6.8125 -21.160156 9.453125 -22.234375 12.421875 -22.234375 C 15.390625 -22.234375 18.015625 -21.164062 20.296875 -19.03125 C 22.578125 -16.90625 23.71875 -14.191406 23.71875 -10.890625 C 23.71875 -8.609375 23.125 -6.578125 21.9375 -4.796875 C 20.757812 -3.023438 19.320312 -1.71875 17.625 -0.875 C 15.9375 -0.0390625 14.1875 0.375 12.375 0.375 C 10.5625 0.375 8.800781 -0.0703125 7.09375 -0.96875 C 5.382812 -1.863281 3.945312 -3.179688 2.78125 -4.921875 C 1.613281 -6.671875 1.03125 -8.644531 1.03125 -10.84375 Z M 9.640625 -7.890625 C 10.523438 -7.222656 11.421875 -6.890625 12.328125 -6.890625 C 13.234375 -6.890625 14.140625 -7.234375 15.046875 -7.921875 C 15.960938 -8.609375 16.421875 -9.625 16.421875 -10.96875 C 16.421875 -12.320312 15.992188 -13.328125 15.140625 -13.984375 C 14.285156 -14.640625 13.363281 -14.96875 12.375 -14.96875 C 11.382812 -14.96875 10.460938 -14.625 9.609375 -13.9375 C 8.753906 -13.25 8.328125 -12.238281 8.328125 -10.90625 C 8.328125 -9.570312 8.765625 -8.566406 9.640625 -7.890625 Z M 9.640625 -7.890625"/></g><g id="e"><path d="M 13.734375 -21.734375 C 16.484375 -21.734375 18.769531 -20.679688 20.59375 -18.578125 C 22.425781 -16.472656 23.34375 -13.910156 23.34375 -10.890625 L 23.34375 -3.625 C 23.34375 -3 23.320312 -2.523438 23.28125 -2.203125 C 23.238281 -1.890625 23.125 -1.539062 22.9375 -1.15625 C 22.550781 -0.414062 21.476562 -0.046875 19.71875 -0.046875 C 17.757812 -0.046875 16.628906 -0.550781 16.328125 -1.5625 C 16.171875 -2.03125 16.09375 -2.734375 16.09375 -3.671875 L 16.09375 -10.9375 C 16.09375 -12.0625 15.769531 -12.9375 15.125 -13.5625 C 14.476562 -14.195312 13.609375 -14.515625 12.515625 -14.515625 C 11.429688 -14.515625 10.550781 -14.1875 9.875 -13.53125 C 9.207031 -12.875 8.875 -12.007812 8.875 -10.9375 L 8.875 -3.625 C 8.875 -3 8.851562 -2.523438 8.8125 -2.203125 C 8.769531 -1.890625 8.640625 -1.539062 8.421875 -1.15625 C 8.054688 -0.414062 6.992188 -0.046875 5.234375 -0.046875 C 3.503906 -0.046875 2.445312 -0.414062 2.0625 -1.15625 C 1.875 -1.570312 1.757812 -1.9375 1.71875 -2.25 C 1.675781 -2.5625 1.65625 -3.035156 1.65625 -3.671875 L 1.65625 -18.28125 C 1.65625 -18.882812 1.675781 -19.34375 1.71875 -19.65625 C 1.757812 -19.96875 1.890625 -20.316406 2.109375 -20.703125 C 2.492188 -21.390625 3.550781 -21.734375 5.28125 -21.734375 C 6.957031 -21.734375 7.988281 -21.421875 8.375 -20.796875 C 8.644531 -20.328125 8.78125 -19.757812 8.78125 -19.09375 C 8.894531 -19.289062 9.144531 -19.566406 9.53125 -19.921875 C 9.914062 -20.273438 10.285156 -20.566406 10.640625 -20.796875 C 11.578125 -21.421875 12.609375 -21.734375 13.734375 -21.734375 Z M 13.734375 -21.734375"/></g><g id="f"><path d="M 14.265625 -14.4375 L 11.59375 -14.609375 L 11.59375 -8.90625 C 11.59375 -8.164062 11.707031 -7.628906 11.9375 -7.296875 C 12.175781 -6.972656 12.617188 -6.8125 13.265625 -6.8125 C 13.910156 -6.8125 14.40625 -6.789062 14.75 -6.75 C 15.09375 -6.707031 15.457031 -6.578125 15.84375 -6.359375 C 16.46875 -5.992188 16.78125 -5.070312 16.78125 -3.59375 C 16.78125 -1.851562 16.398438 -0.789062 15.640625 -0.40625 C 15.222656 -0.21875 14.851562 -0.101562 14.53125 -0.0625 C 14.21875 -0.0195312 13.757812 0 13.15625 0 C 10.300781 0 8.128906 -0.644531 6.640625 -1.9375 C 5.148438 -3.226562 4.40625 -5.414062 4.40625 -8.5 L 4.40625 -14.609375 C 3.882812 -14.523438 3.320312 -14.484375 2.71875 -14.484375 C 2.113281 -14.484375 1.613281 -14.710938 1.21875 -15.171875 C 0.820312 -15.640625 0.625 -16.4375 0.625 -17.5625 C 0.625 -18.695312 0.691406 -19.519531 0.828125 -20.03125 C 0.960938 -20.539062 1.15625 -20.90625 1.40625 -21.125 C 1.84375 -21.476562 2.390625 -21.65625 3.046875 -21.65625 L 4.40625 -21.484375 L 4.40625 -25.734375 C 4.40625 -26.367188 4.425781 -26.835938 4.46875 -27.140625 C 4.507812 -27.441406 4.644531 -27.769531 4.875 -28.125 C 5.226562 -28.8125 6.285156 -29.15625 8.046875 -29.15625 C 9.910156 -29.15625 11.023438 -28.648438 11.390625 -27.640625 C 11.523438 -27.203125 11.59375 -26.5 11.59375 -25.53125 L 11.59375 -21.484375 C 12.800781 -21.597656 13.710938 -21.65625 14.328125 -21.65625 C 14.953125 -21.65625 15.421875 -21.632812 15.734375 -21.59375 C 16.054688 -21.550781 16.421875 -21.421875 16.828125 -21.203125 C 17.546875 -20.847656 17.90625 -19.789062 17.90625 -18.03125 C 17.90625 -16.289062 17.53125 -15.226562 16.78125 -14.84375 C 16.375 -14.65625 16.007812 -14.539062 15.6875 -14.5 C 15.375 -14.457031 14.898438 -14.4375 14.265625 -14.4375 Z M 14.265625 -14.4375"/></g><g id="g"><path d="M 22.609375 -13.46875 C 22.609375 -11.78125 22.1875 -10.53125 21.34375 -9.71875 C 20.507812 -8.90625 19.582031 -8.5 18.5625 -8.5 L 8.78125 -8.5 C 8.78125 -7.726562 9.234375 -7.082031 10.140625 -6.5625 C 11.054688 -6.039062 11.96875 -5.78125 12.875 -5.78125 C 14.46875 -5.78125 15.71875 -5.941406 16.625 -6.265625 L 17.078125 -6.4375 C 17.734375 -6.738281 18.285156 -6.890625 18.734375 -6.890625 C 19.609375 -6.890625 20.363281 -6.269531 21 -5.03125 C 21.351562 -4.289062 21.53125 -3.660156 21.53125 -3.140625 C 21.53125 -0.691406 18.601562 0.53125 12.75 0.53125 C 10.707031 0.53125 8.894531 0.179688 7.3125 -0.515625 C 5.738281 -1.210938 4.507812 -2.140625 3.625 -3.296875 C 1.894531 -5.523438 1.03125 -8.015625 1.03125 -10.765625 C 1.03125 -14.234375 2.148438 -17.003906 4.390625 -19.078125 C 6.628906 -21.148438 9.425781 -22.1875 12.78125 -22.1875 C 16.601562 -22.1875 19.410156 -20.84375 21.203125 -18.15625 C 22.140625 -16.71875 22.609375 -15.15625 22.609375 -13.46875 Z M 13.90625 -12.25 C 14.945312 -12.25 15.46875 -12.691406 15.46875 -13.578125 C 15.46875 -14.203125 15.226562 -14.707031 14.75 -15.09375 C 14.269531 -15.476562 13.582031 -15.671875 12.6875 -15.671875 C 11.789062 -15.671875 10.898438 -15.304688 10.015625 -14.578125 C 9.140625 -13.847656 8.703125 -13.070312 8.703125 -12.25 Z M 13.90625 -12.25"/></g><g id="h"><path d="M 16.234375 -30.78125 C 16.441406 -31.1875 16.804688 -31.472656 17.328125 -31.640625 C 17.847656 -31.804688 18.539062 -31.890625 19.40625 -31.890625 C 20.269531 -31.890625 20.960938 -31.804688 21.484375 -31.640625 C 22.015625 -31.472656 22.378906 -31.179688 22.578125 -30.765625 C 22.785156 -30.359375 22.910156 -29.992188 22.953125 -29.671875 C 22.992188 -29.359375 23.015625 -28.882812 23.015625 -28.25 L 23.015625 -3.625 C 23.015625 -3 22.992188 -2.523438 22.953125 -2.203125 C 22.910156 -1.890625 22.78125 -1.539062 22.5625 -1.15625 C 22.144531 -0.414062 20.984375 -0.046875 19.078125 -0.046875 C 17.171875 -0.046875 16.101562 -0.71875 15.875 -2.0625 C 14.726562 -0.738281 13.125 -0.078125 11.0625 -0.078125 C 8.582031 -0.078125 6.320312 -1.15625 4.28125 -3.3125 C 2.25 -5.476562 1.234375 -8 1.234375 -10.875 C 1.234375 -13.75 2.257812 -16.269531 4.3125 -18.4375 C 6.363281 -20.613281 8.613281 -21.703125 11.0625 -21.703125 C 13.09375 -21.703125 14.671875 -21.015625 15.796875 -19.640625 L 15.796875 -28.296875 C 15.796875 -28.929688 15.816406 -29.40625 15.859375 -29.71875 C 15.898438 -30.03125 16.023438 -30.382812 16.234375 -30.78125 Z M 9.515625 -8.375 C 10.234375 -7.632812 11.101562 -7.265625 12.125 -7.265625 C 13.144531 -7.265625 13.988281 -7.632812 14.65625 -8.375 C 15.332031 -9.113281 15.671875 -9.929688 15.671875 -10.828125 C 15.671875 -11.722656 15.347656 -12.554688 14.703125 -13.328125 C 14.054688 -14.097656 13.179688 -14.484375 12.078125 -14.484375 C 10.984375 -14.484375 10.101562 -14.101562 9.4375 -13.34375 C 8.78125 -12.582031 8.453125 -11.75 8.453125 -10.84375 C 8.453125 -9.9375 8.804688 -9.113281 9.515625 -8.375 Z M 9.515625 -8.375"/></g><g id="i"><path d="M 24.859375 -5.125 C 25.273438 -4.132812 25.484375 -3.421875 25.484375 -2.984375 C 25.484375 -1.929688 24.625 -1.046875 22.90625 -0.328125 C 22.03125 0.0546875 21.320312 0.25 20.78125 0.25 C 20.25 0.25 19.804688 0.117188 19.453125 -0.140625 C 19.109375 -0.398438 18.851562 -0.671875 18.6875 -0.953125 C 18.414062 -1.472656 17.34375 -3.96875 15.46875 -8.4375 L 14.1875 -8.359375 L 8.96875 -8.359375 L 8.96875 -3.6875 C 8.96875 -3.050781 8.945312 -2.570312 8.90625 -2.25 C 8.863281 -1.9375 8.734375 -1.570312 8.515625 -1.15625 C 8.128906 -0.414062 7.054688 -0.046875 5.296875 -0.046875 C 3.367188 -0.046875 2.238281 -0.554688 1.90625 -1.578125 C 1.738281 -2.046875 1.65625 -2.757812 1.65625 -3.71875 L 1.65625 -26.671875 C 1.65625 -27.304688 1.675781 -27.78125 1.71875 -28.09375 C 1.757812 -28.414062 1.890625 -28.785156 2.109375 -29.203125 C 2.492188 -29.941406 3.566406 -30.3125 5.328125 -30.3125 L 14.265625 -30.3125 C 16.691406 -30.3125 19.050781 -29.429688 21.34375 -27.671875 C 22.445312 -26.816406 23.351562 -25.65625 24.0625 -24.1875 C 24.78125 -22.726562 25.140625 -21.101562 25.140625 -19.3125 C 25.140625 -16.195312 24.109375 -13.632812 22.046875 -11.625 C 22.648438 -10.164062 23.585938 -8 24.859375 -5.125 Z M 8.96875 -15.671875 L 14.265625 -15.671875 C 15.066406 -15.671875 15.867188 -15.972656 16.671875 -16.578125 C 17.472656 -17.191406 17.875 -18.101562 17.875 -19.3125 C 17.875 -20.53125 17.472656 -21.445312 16.671875 -22.0625 C 15.867188 -22.6875 15.039062 -23 14.1875 -23 L 8.96875 -23 Z M 8.96875 -15.671875"/></g><g id="j"><path d="M 1.03125 -10.875 C 1.03125 -14.1875 2.1875 -16.914062 4.5 -19.0625 C 6.820312 -21.21875 9.472656 -22.296875 12.453125 -22.296875 C 15.429688 -22.296875 18.0625 -21.222656 20.34375 -19.078125 C 22.632812 -16.941406 23.78125 -14.222656 23.78125 -10.921875 C 23.78125 -8.628906 23.1875 -6.59375 22 -4.8125 C 20.8125 -3.039062 19.367188 -1.734375 17.671875 -0.890625 C 15.984375 -0.046875 14.226562 0.375 12.40625 0.375 C 10.582031 0.375 8.816406 -0.0703125 7.109375 -0.96875 C 5.398438 -1.863281 3.957031 -3.1875 2.78125 -4.9375 C 1.613281 -6.6875 1.03125 -8.664062 1.03125 -10.875 Z M 9.671875 -7.921875 C 10.554688 -7.242188 11.453125 -6.90625 12.359375 -6.90625 C 13.273438 -6.90625 14.1875 -7.25 15.09375 -7.9375 C 16.007812 -8.625 16.46875 -9.644531 16.46875 -11 C 16.46875 -12.351562 16.035156 -13.359375 15.171875 -14.015625 C 14.316406 -14.679688 13.394531 -15.015625 12.40625 -15.015625 C 11.414062 -15.015625 10.492188 -14.671875 9.640625 -13.984375 C 8.785156 -13.296875 8.359375 -12.28125 8.359375 -10.9375 C 8.359375 -9.601562 8.796875 -8.597656 9.671875 -7.921875 Z M 9.671875 -7.921875"/></g><g id="k"><path d="M 15.796875 -19.484375 C 15.960938 -21.023438 17.050781 -21.796875 19.0625 -21.796875 C 20.144531 -21.796875 20.945312 -21.710938 21.46875 -21.546875 C 21.988281 -21.378906 22.351562 -21.085938 22.5625 -20.671875 C 22.769531 -20.265625 22.894531 -19.898438 22.9375 -19.578125 C 22.976562 -19.265625 23 -18.789062 23 -18.15625 L 23 -3.6875 C 23 -3.050781 22.976562 -2.570312 22.9375 -2.25 C 22.894531 -1.9375 22.773438 -1.570312 22.578125 -1.15625 C 22.191406 -0.4375 21.25 -0.078125 19.75 -0.078125 C 18.25 -0.078125 17.242188 -0.265625 16.734375 -0.640625 C 16.222656 -1.015625 15.925781 -1.5625 15.84375 -2.28125 C 14.820312 -0.8125 13.117188 -0.078125 10.734375 -0.078125 C 8.347656 -0.078125 6.132812 -1.164062 4.09375 -3.34375 C 2.050781 -5.53125 1.03125 -8.0625 1.03125 -10.9375 C 1.03125 -13.820312 2.054688 -16.34375 4.109375 -18.5 C 6.171875 -20.664062 8.425781 -21.75 10.875 -21.75 C 11.8125 -21.75 12.664062 -21.582031 13.4375 -21.25 C 14.207031 -20.925781 14.742188 -20.617188 15.046875 -20.328125 C 15.359375 -20.035156 15.609375 -19.753906 15.796875 -19.484375 Z M 8.265625 -10.875 C 8.265625 -9.96875 8.625 -9.148438 9.34375 -8.421875 C 10.0625 -7.691406 10.929688 -7.328125 11.953125 -7.328125 C 12.972656 -7.328125 13.820312 -7.695312 14.5 -8.4375 C 15.175781 -9.175781 15.515625 -9.992188 15.515625 -10.890625 C 15.515625 -11.796875 15.1875 -12.632812 14.53125 -13.40625 C 13.882812 -14.175781 13.015625 -14.5625 11.921875 -14.5625 C 10.835938 -14.5625 9.957031 -14.175781 9.28125 -13.40625 C 8.601562 -12.632812 8.265625 -11.789062 8.265625 -10.875 Z M 8.265625 -10.875"/></g><g id="l"><path d="M 16.265625 -30.875 C 16.472656 -31.269531 16.835938 -31.550781 17.359375 -31.71875 C 17.890625 -31.882812 18.585938 -31.96875 19.453125 -31.96875 C 20.328125 -31.96875 21.023438 -31.882812 21.546875 -31.71875 C 22.066406 -31.550781 22.429688 -31.257812 22.640625 -30.84375 C 22.847656 -30.4375 22.972656 -30.070312 23.015625 -29.75 C 23.054688 -29.4375 23.078125 -28.960938 23.078125 -28.328125 L 23.078125 -3.640625 C 23.078125 -3.003906 23.054688 -2.523438 23.015625 -2.203125 C 22.972656 -1.890625 22.84375 -1.539062 22.625 -1.15625 C 22.207031 -0.414062 21.039062 -0.046875 19.125 -0.046875 C 17.207031 -0.046875 16.140625 -0.71875 15.921875 -2.0625 C 14.765625 -0.738281 13.148438 -0.078125 11.078125 -0.078125 C 8.597656 -0.078125 6.335938 -1.160156 4.296875 -3.328125 C 2.253906 -5.492188 1.234375 -8.015625 1.234375 -10.890625 C 1.234375 -13.773438 2.257812 -16.304688 4.3125 -18.484375 C 6.375 -20.660156 8.628906 -21.75 11.078125 -21.75 C 13.117188 -21.75 14.707031 -21.0625 15.84375 -19.6875 L 15.84375 -28.375 C 15.84375 -29.007812 15.863281 -29.484375 15.90625 -29.796875 C 15.945312 -30.117188 16.066406 -30.476562 16.265625 -30.875 Z M 9.546875 -8.390625 C 10.265625 -7.648438 11.132812 -7.28125 12.15625 -7.28125 C 13.175781 -7.28125 14.023438 -7.648438 14.703125 -8.390625 C 15.378906 -9.140625 15.71875 -9.960938 15.71875 -10.859375 C 15.71875 -11.753906 15.390625 -12.585938 14.734375 -13.359375 C 14.085938 -14.128906 13.210938 -14.515625 12.109375 -14.515625 C 11.015625 -14.515625 10.132812 -14.132812 9.46875 -13.375 C 8.8125 -12.625 8.484375 -11.789062 8.484375 -10.875 C 8.484375 -9.96875 8.835938 -9.140625 9.546875 -8.390625 Z M 9.546875 -8.390625"/></g><g id="m"><path d="M 8.765625 -18.90625 C 10.066406 -20.863281 11.625 -21.84375 13.4375 -21.84375 C 16.25 -21.84375 18.347656 -20.640625 19.734375 -18.234375 C 20.035156 -18.648438 20.398438 -19.082031 20.828125 -19.53125 C 21.253906 -19.988281 21.9375 -20.488281 22.875 -21.03125 C 23.8125 -21.570312 24.773438 -21.84375 25.765625 -21.84375 C 27.972656 -21.84375 29.820312 -20.992188 31.3125 -19.296875 C 32.800781 -17.597656 33.546875 -14.789062 33.546875 -10.875 L 33.546875 -3.640625 C 33.546875 -3.003906 33.523438 -2.523438 33.484375 -2.203125 C 33.441406 -1.890625 33.3125 -1.523438 33.09375 -1.109375 C 32.726562 -0.367188 31.664062 0 29.90625 0 C 28.164062 0 27.101562 -0.382812 26.71875 -1.15625 C 26.519531 -1.570312 26.398438 -1.9375 26.359375 -2.25 C 26.316406 -2.570312 26.296875 -3.050781 26.296875 -3.6875 L 26.296875 -10.921875 C 26.296875 -13.316406 25.441406 -14.515625 23.734375 -14.515625 C 22.773438 -14.515625 22.125 -14.195312 21.78125 -13.5625 C 21.4375 -12.925781 21.265625 -12.03125 21.265625 -10.875 L 21.265625 -3.640625 C 21.265625 -2.972656 21.242188 -2.488281 21.203125 -2.1875 C 21.160156 -1.882812 21.023438 -1.523438 20.796875 -1.109375 C 20.410156 -0.367188 19.335938 0 17.578125 0 C 15.835938 0 14.773438 -0.382812 14.390625 -1.15625 C 14.203125 -1.570312 14.085938 -1.9375 14.046875 -2.25 C 14.003906 -2.570312 13.984375 -3.050781 13.984375 -3.6875 L 13.984375 -10.921875 C 13.984375 -13.316406 13.128906 -14.515625 11.421875 -14.515625 C 9.765625 -14.515625 8.9375 -13.316406 8.9375 -10.921875 L 8.9375 -3.59375 C 8.9375 -2.957031 8.914062 -2.484375 8.875 -2.171875 C 8.832031 -1.859375 8.703125 -1.492188 8.484375 -1.078125 C 8.066406 -0.359375 6.988281 0 5.25 0 C 3.507812 0 2.445312 -0.367188 2.0625 -1.109375 C 1.875 -1.523438 1.757812 -1.882812 1.71875 -2.1875 C 1.675781 -2.488281 1.65625 -2.972656 1.65625 -3.640625 L 1.65625 -18.203125 C 1.65625 -18.835938 1.675781 -19.3125 1.71875 -19.625 C 1.757812 -19.9375 1.890625 -20.289062 2.109375 -20.6875 C 2.523438 -21.425781 3.503906 -21.796875 5.046875 -21.796875 C 6.585938 -21.796875 7.59375 -21.546875 8.0625 -21.046875 C 8.53125 -20.554688 8.765625 -19.84375 8.765625 -18.90625 Z M 8.765625 -18.90625"/></g><g id="n"><path d="M 1.65625 5.921875 L 1.65625 -18.234375 C 1.65625 -18.867188 1.675781 -19.335938 1.71875 -19.640625 C 1.757812 -19.941406 1.875 -20.289062 2.0625 -20.6875 C 2.445312 -21.425781 3.367188 -21.796875 4.828125 -21.796875 C 6.296875 -21.796875 7.285156 -21.609375 7.796875 -21.234375 C 8.304688 -20.867188 8.601562 -20.328125 8.6875 -19.609375 C 9.726562 -21.035156 11.375 -21.75 13.625 -21.75 C 15.875 -21.75 18.003906 -20.6875 20.015625 -18.5625 C 22.023438 -16.445312 23.03125 -13.984375 23.03125 -11.171875 C 23.03125 -8.359375 22.03125 -5.890625 20.03125 -3.765625 C 18.039062 -1.640625 15.910156 -0.578125 13.640625 -0.578125 C 11.378906 -0.578125 9.742188 -1.210938 8.734375 -2.484375 L 8.734375 5.875 C 8.734375 6.507812 8.710938 6.976562 8.671875 7.28125 C 8.628906 7.582031 8.503906 7.929688 8.296875 8.328125 C 8.085938 8.734375 7.734375 9.019531 7.234375 9.1875 C 6.742188 9.351562 6.066406 9.4375 5.203125 9.4375 C 4.347656 9.4375 3.664062 9.351562 3.15625 9.1875 C 2.65625 9.019531 2.300781 8.742188 2.09375 8.359375 C 1.882812 7.972656 1.757812 7.625 1.71875 7.3125 C 1.675781 7.007812 1.65625 6.546875 1.65625 5.921875 Z M 9.84375 -13.5625 C 9.207031 -12.820312 8.890625 -12.007812 8.890625 -11.125 C 8.890625 -10.238281 9.210938 -9.429688 9.859375 -8.703125 C 10.515625 -7.972656 11.34375 -7.609375 12.34375 -7.609375 C 13.351562 -7.609375 14.207031 -7.96875 14.90625 -8.6875 C 15.613281 -9.40625 15.96875 -10.21875 15.96875 -11.125 C 15.96875 -12.03125 15.632812 -12.847656 14.96875 -13.578125 C 14.3125 -14.316406 13.453125 -14.6875 12.390625 -14.6875 C 11.328125 -14.6875 10.476562 -14.3125 9.84375 -13.5625 Z M 9.84375 -13.5625"/></g><clipPath id="a"><path d="M 10.703125 10.703125 L 364.703125 10.703125 L 364.703125 364.703125 L 10.703125 364.703125 Z M 10.703125 10.703125"/></clipPath></defs><g clip-path="url(#a)"><path fill="#4CCBA1" d="M 315.710938 266.503906 C 290.222656 266.503906 269.195312 286.1875 266.929688 311.179688 L 200.445312 311.179688 C 198.253906 296.097656 185.296875 284.414062 169.648438 284.414062 C 154.003906 284.414062 140.976562 296.027344 138.851562 311.179688 L 78.953125 311.179688 C 46.246094 311.179688 19.625 284.488281 19.625 251.707031 C 19.625 218.925781 46.246094 192.234375 78.953125 192.234375 L 92.617188 192.234375 C 94.8125 207.316406 107.769531 218.996094 123.417969 218.996094 C 139.0625 218.996094 152.089844 207.316406 154.214844 192.234375 L 218.714844 192.234375 C 220.90625 207.316406 233.863281 218.996094 249.511719 218.996094 C 265.15625 218.996094 278.183594 207.316406 280.308594 192.234375 L 296.453125 192.234375 C 334.046875 192.234375 364.703125 161.578125 364.703125 123.839844 C 364.703125 86.105469 334.117188 55.449219 296.453125 55.449219 L 234.078125 55.449219 C 231.882812 40.367188 218.925781 28.6875 203.277344 28.6875 C 187.632812 28.6875 174.605469 40.367188 172.480469 55.449219 L 108.476562 55.449219 C 106.210938 30.386719 85.253906 10.703125 59.695312 10.703125 C 32.652344 10.703125 10.703125 32.722656 10.703125 59.839844 C 10.703125 86.953125 32.652344 108.972656 59.695312 108.972656 C 85.183594 108.972656 106.210938 89.289062 108.476562 64.296875 L 172.480469 64.296875 C 174.675781 79.378906 187.632812 91.0625 203.277344 91.0625 C 218.925781 91.0625 231.953125 79.378906 234.078125 64.296875 L 296.453125 64.296875 C 329.160156 64.296875 355.78125 90.988281 355.78125 123.769531 C 355.78125 156.550781 329.160156 183.242188 296.453125 183.242188 L 280.308594 183.242188 C 278.113281 168.164062 265.15625 156.480469 249.511719 156.480469 C 233.863281 156.480469 220.835938 168.164062 218.714844 183.242188 L 154.214844 183.242188 C 152.019531 168.164062 139.0625 156.480469 123.417969 156.480469 C 107.769531 156.480469 94.742188 168.164062 92.617188 183.242188 L 78.953125 183.242188 C 41.289062 183.242188 10.703125 213.96875 10.703125 251.636719 C 10.703125 289.300781 41.289062 320.027344 78.953125 320.027344 L 138.851562 320.027344 C 141.046875 335.109375 154.003906 346.789062 169.648438 346.789062 C 185.296875 346.789062 198.324219 335.109375 200.445312 320.027344 L 266.929688 320.027344 C 269.195312 345.019531 290.222656 364.703125 315.710938 364.703125 C 342.753906 364.703125 364.703125 342.683594 364.703125 315.566406 C 364.703125 288.523438 342.753906 266.503906 315.710938 266.503906 Z M 59.695312 100.050781 C 37.605469 100.050781 19.554688 82 19.554688 59.839844 C 19.554688 37.679688 37.605469 19.625 59.695312 19.625 C 81.785156 19.625 99.839844 37.679688 99.839844 59.839844 C 99.839844 82 81.855469 100.050781 59.695312 100.050781 Z M 203.277344 82.140625 C 191.03125 82.140625 181.046875 72.15625 181.046875 59.839844 C 181.046875 47.519531 191.03125 37.535156 203.277344 37.535156 C 215.527344 37.535156 225.511719 47.519531 225.511719 59.839844 C 225.511719 72.085938 215.527344 82.140625 203.277344 82.140625 Z M 249.511719 165.402344 C 261.757812 165.402344 271.742188 175.382812 271.742188 187.703125 C 271.742188 200.023438 261.757812 210.003906 249.511719 210.003906 C 237.261719 210.003906 227.28125 200.023438 227.28125 187.703125 C 227.28125 175.382812 237.261719 165.402344 249.511719 165.402344 Z M 123.417969 165.402344 C 135.664062 165.402344 145.648438 175.382812 145.648438 187.703125 C 145.648438 200.023438 135.664062 210.003906 123.417969 210.003906 C 111.167969 210.003906 101.183594 200.023438 101.183594 187.703125 C 101.113281 175.382812 111.097656 165.402344 123.417969 165.402344 Z M 169.648438 337.871094 C 157.402344 337.871094 147.417969 327.886719 147.417969 315.566406 C 147.417969 303.25 157.402344 293.265625 169.648438 293.265625 C 181.898438 293.265625 191.878906 303.25 191.878906 315.566406 C 191.878906 327.886719 181.898438 337.871094 169.648438 337.871094 Z M 315.710938 355.78125 C 293.621094 355.78125 275.566406 337.726562 275.566406 315.566406 C 275.566406 293.40625 293.550781 275.351562 315.710938 275.351562 C 337.871094 275.351562 355.851562 293.40625 355.851562 315.566406 C 355.851562 337.800781 337.800781 355.78125 315.710938 355.78125 Z M 315.710938 355.78125"/></g><path fill="#4CCBA1" d="M 315.710938 284.980469 C 298.859375 284.980469 285.195312 298.71875 285.195312 315.566406 C 285.195312 332.417969 298.859375 346.152344 315.710938 346.152344 C 332.558594 346.152344 346.222656 332.417969 346.222656 315.566406 C 346.222656 298.71875 332.558594 284.980469 315.710938 284.980469 Z M 315.710938 337.304688 C 303.816406 337.304688 294.042969 327.605469 294.042969 315.636719 C 294.042969 303.671875 303.742188 293.972656 315.710938 293.972656 C 327.675781 293.972656 337.375 303.671875 337.375 315.636719 C 337.375 327.53125 327.605469 337.304688 315.710938 337.304688 Z M 315.710938 337.304688"/><path fill="#4CCBA1" d="M 326.824219 315.566406 C 326.824219 316.300781 326.753906 317.03125 326.609375 317.75 C 326.46875 318.46875 326.257812 319.171875 325.980469 319.847656 C 325.699219 320.527344 325.355469 321.171875 324.953125 321.78125 C 324.546875 322.394531 324.085938 322.957031 323.570312 323.476562 C 323.054688 323.996094 322.492188 324.460938 321.886719 324.867188 C 321.277344 325.277344 320.636719 325.621094 319.964844 325.902344 C 319.289062 326.183594 318.59375 326.394531 317.878906 326.539062 C 317.160156 326.683594 316.4375 326.753906 315.710938 326.753906 C 314.980469 326.753906 314.257812 326.683594 313.539062 326.539062 C 312.824219 326.394531 312.128906 326.183594 311.457031 325.902344 C 310.78125 325.621094 310.140625 325.277344 309.535156 324.867188 C 308.925781 324.460938 308.367188 323.996094 307.847656 323.476562 C 307.332031 322.957031 306.871094 322.394531 306.46875 321.78125 C 306.0625 321.171875 305.71875 320.527344 305.441406 319.847656 C 305.160156 319.171875 304.949219 318.46875 304.808594 317.75 C 304.664062 317.03125 304.59375 316.300781 304.59375 315.566406 C 304.59375 314.832031 304.664062 314.105469 304.808594 313.386719 C 304.949219 312.664062 305.160156 311.964844 305.441406 311.285156 C 305.71875 310.609375 306.0625 309.964844 306.46875 309.351562 C 306.871094 308.742188 307.332031 308.175781 307.847656 307.65625 C 308.367188 307.136719 308.925781 306.675781 309.535156 306.265625 C 310.140625 305.859375 310.78125 305.515625 311.457031 305.234375 C 312.128906 304.953125 312.824219 304.738281 313.539062 304.597656 C 314.257812 304.453125 314.980469 304.382812 315.710938 304.382812 C 316.4375 304.382812 317.160156 304.453125 317.878906 304.597656 C 318.59375 304.738281 319.289062 304.953125 319.964844 305.234375 C 320.636719 305.515625 321.277344 305.859375 321.886719 306.265625 C 322.492188 306.675781 323.054688 307.136719 323.570312 307.65625 C 324.085938 308.175781 324.546875 308.742188 324.953125 309.351562 C 325.355469 309.964844 325.699219 310.609375 325.980469 311.285156 C 326.257812 311.964844 326.46875 312.664062 326.609375 313.386719 C 326.753906 314.105469 326.824219 314.832031 326.824219 315.566406 Z M 326.824219 315.566406"/><path fill="#4CCBA1" d="M 60.6875 50.847656 L 41.074219 50.847656 L 41.074219 68.757812 L 60.6875 68.757812 L 60.6875 77.324219 L 86.742188 59.839844 L 60.6875 42.28125 Z M 60.6875 50.847656"/><path fill="#4CCBA1" d="M 206.535156 47.304688 L 202.289062 47.304688 C 201.367188 47.800781 200.445312 48.296875 199.527344 48.652344 C 198.605469 49.003906 197.402344 49.359375 196.058594 49.570312 L 196.058594 53.183594 L 200.730469 53.183594 L 200.730469 67.695312 L 195.277344 67.695312 L 195.277344 72.371094 L 211.207031 72.371094 L 211.207031 67.695312 L 206.535156 67.695312 Z M 206.535156 47.304688"/><path fill="#4CCBA1" d="M 245.757812 180.269531 C 246.46875 179.773438 247.316406 179.488281 248.167969 179.488281 C 249.300781 179.488281 250.148438 179.84375 250.785156 180.480469 C 251.421875 181.117188 251.707031 182.039062 251.707031 183.3125 C 251.707031 184.234375 251.421875 185.152344 250.925781 186.144531 C 250.359375 187.136719 249.652344 188.199219 248.660156 189.332031 C 247.671875 190.464844 246.539062 191.667969 245.261719 193.011719 C 243.917969 194.289062 242.503906 195.703125 240.875 197.191406 L 240.875 200.519531 L 258.503906 200.519531 L 258.503906 195.632812 L 253.476562 195.632812 C 252.839844 195.632812 252.203125 195.632812 251.421875 195.703125 C 250.644531 195.773438 249.9375 195.84375 249.300781 195.914062 C 250.289062 194.855469 251.28125 193.792969 252.273438 192.730469 C 253.265625 191.667969 254.113281 190.535156 254.820312 189.472656 C 255.601562 188.410156 256.167969 187.277344 256.589844 186.214844 C 257.015625 185.152344 257.230469 184.019531 257.230469 183.03125 C 257.230469 181.828125 257.015625 180.695312 256.664062 179.773438 C 256.238281 178.78125 255.671875 177.933594 254.964844 177.296875 C 254.253906 176.585938 253.335938 176.089844 252.34375 175.667969 C 251.351562 175.3125 250.21875 175.101562 248.945312 175.101562 C 247.175781 175.101562 245.617188 175.453125 244.34375 176.089844 C 243.070312 176.730469 241.792969 177.789062 240.589844 179.066406 L 243.707031 182.179688 C 244.34375 181.332031 244.980469 180.765625 245.757812 180.269531 Z M 245.757812 180.269531"/><path fill="#4CCBA1" d="M 125.46875 195.207031 C 124.761719 195.703125 123.769531 195.988281 122.496094 195.988281 C 121.433594 195.988281 120.441406 195.773438 119.523438 195.277344 C 118.601562 194.78125 117.753906 194.214844 117.042969 193.4375 L 114.355469 197.121094 C 115.273438 198.179688 116.40625 199.03125 117.824219 199.738281 C 119.238281 200.375 120.9375 200.730469 122.992188 200.730469 C 124.265625 200.730469 125.46875 200.589844 126.601562 200.234375 C 127.734375 199.878906 128.726562 199.457031 129.574219 198.820312 C 130.425781 198.179688 131.0625 197.402344 131.558594 196.554688 C 132.054688 195.632812 132.335938 194.640625 132.335938 193.4375 C 132.335938 191.808594 131.839844 190.464844 130.921875 189.472656 C 130 188.480469 128.796875 187.773438 127.382812 187.347656 L 127.382812 187.207031 C 128.726562 186.640625 129.71875 185.863281 130.496094 184.941406 C 131.203125 184.019531 131.558594 182.886719 131.558594 181.613281 C 131.558594 180.480469 131.347656 179.5625 130.921875 178.710938 C 130.496094 177.863281 129.929688 177.152344 129.152344 176.585938 C 128.371094 176.019531 127.523438 175.523438 126.460938 175.242188 C 125.398438 174.957031 124.195312 174.816406 122.921875 174.816406 C 121.363281 174.816406 119.949219 175.101562 118.671875 175.667969 C 117.398438 176.234375 116.195312 177.011719 115.0625 178.003906 L 117.964844 181.542969 C 118.742188 180.835938 119.523438 180.339844 120.230469 179.914062 C 120.9375 179.488281 121.789062 179.347656 122.636719 179.347656 C 123.628906 179.347656 124.40625 179.5625 124.902344 180.054688 C 125.398438 180.550781 125.683594 181.1875 125.683594 182.109375 C 125.683594 182.605469 125.613281 183.03125 125.398438 183.453125 C 125.1875 183.878906 124.902344 184.234375 124.40625 184.515625 C 123.984375 184.800781 123.347656 185.082031 122.566406 185.226562 C 121.789062 185.367188 120.867188 185.4375 119.734375 185.4375 L 119.734375 189.542969 C 121.082031 189.542969 122.214844 189.613281 123.0625 189.828125 C 123.914062 189.96875 124.621094 190.25 125.117188 190.535156 C 125.613281 190.816406 125.964844 191.242188 126.179688 191.667969 C 126.390625 192.09375 126.460938 192.589844 126.460938 193.15625 C 126.601562 194.003906 126.25 194.710938 125.46875 195.207031 Z M 125.46875 195.207031"/><path fill="#4CCBA1" d="M 176.304688 303.035156 L 169.222656 303.035156 L 160.089844 318.117188 L 160.089844 322.082031 L 170.921875 322.082031 L 170.921875 328.097656 L 176.304688 328.097656 L 176.304688 322.082031 L 179.207031 322.082031 L 179.207031 317.691406 L 176.304688 317.691406 Z M 170.996094 310.824219 C 170.921875 311.886719 170.921875 312.804688 170.921875 313.65625 L 170.921875 317.691406 L 165.613281 317.691406 L 168.941406 312.238281 C 169.296875 311.53125 169.648438 310.824219 170.003906 310.117188 C 170.355469 309.40625 170.640625 308.699219 170.992188 307.992188 L 171.136719 307.992188 C 171.066406 308.839844 171.066406 309.761719 170.996094 310.824219 Z M 170.996094 310.824219"/><g fill="#4CCBA1"><use x="93.136" y="137.36" xmlns:xlink="http://www.w3.org/1999/xlink" xlink:href="#b" xlink:type="simple" xlink:actuate="onLoad" xlink:show="embed"/></g><g fill="#4CCBA1"><use x="119.41" y="137.36" xmlns:xlink="http://www.w3.org/1999/xlink" xlink:href="#c" xlink:type="simple" xlink:actuate="onLoad" xlink:show="embed"/></g><g fill="#4CCBA1"><use x="138.26" y="137.36" xmlns:xlink="http://www.w3.org/1999/xlink" xlink:href="#d" xlink:type="simple" xlink:actuate="onLoad" xlink:show="embed"/></g><g fill="#4CCBA1"><use x="163.008" y="137.36" xmlns:xlink="http://www.w3.org/1999/xlink" xlink:href="#e" xlink:type="simple" xlink:actuate="onLoad" xlink:show="embed"/></g><g fill="#4CCBA1"><use x="188.004" y="137.36" xmlns:xlink="http://www.w3.org/1999/xlink" xlink:href="#f" xlink:type="simple" xlink:actuate="onLoad" xlink:show="embed"/></g><g fill="#4CCBA1"><use x="206.523" y="137.36" xmlns:xlink="http://www.w3.org/1999/xlink" xlink:href="#g" xlink:type="simple" xlink:actuate="onLoad" xlink:show="embed"/></g><g fill="#4CCBA1"><use x="230.158" y="137.36" xmlns:xlink="http://www.w3.org/1999/xlink" xlink:href="#e" xlink:type="simple" xlink:actuate="onLoad" xlink:show="embed"/></g><g fill="#4CCBA1"><use x="255.153" y="137.36" xmlns:xlink="http://www.w3.org/1999/xlink" xlink:href="#h" xlink:type="simple" xlink:actuate="onLoad" xlink:show="embed"/></g><g fill="#4CCBA1"><use x="95.577" y="264.492" xmlns:xlink="http://www.w3.org/1999/xlink" xlink:href="#i" xlink:type="simple" xlink:actuate="onLoad" xlink:show="embed"/></g><g fill="#4CCBA1"><use x="121.678" y="264.492" xmlns:xlink="http://www.w3.org/1999/xlink" xlink:href="#j" xlink:type="simple" xlink:actuate="onLoad" xlink:show="embed"/></g><g fill="#4CCBA1"><use x="146.498" y="264.492" xmlns:xlink="http://www.w3.org/1999/xlink" xlink:href="#k" xlink:type="simple" xlink:actuate="onLoad" xlink:show="embed"/></g><g fill="#4CCBA1"><use x="171.152" y="264.492" xmlns:xlink="http://www.w3.org/1999/xlink" xlink:href="#l" xlink:type="simple" xlink:actuate="onLoad" xlink:show="embed"/></g><g fill="#4CCBA1"><use x="195.888" y="264.492" xmlns:xlink="http://www.w3.org/1999/xlink" xlink:href="#m" xlink:type="simple" xlink:actuate="onLoad" xlink:show="embed"/></g><g fill="#4CCBA1"><use x="231.09" y="264.492" xmlns:xlink="http://www.w3.org/1999/xlink" xlink:href="#k" xlink:type="simple" xlink:actuate="onLoad" xlink:show="embed"/></g><g fill="#4CCBA1"><use x="255.744" y="264.492" xmlns:xlink="http://www.w3.org/1999/xlink" xlink:href="#n" xlink:type="simple" xlink:actuate="onLoad" xlink:show="embed"/></g></svg>